<svg id="Layer_1" data-name="Layer 1" xmlns="http://www.w3.org/2000/svg" viewBox="0 0 100 125"><title>diamond</title><path d="M48.86,71.55a1.5,1.5,0,0,0,2.27,0L76.87,41.7A1.5,1.5,0,0,0,77,39.86L69.27,29A1.5,1.5,0,0,0,68,28.35H32a1.5,1.5,0,0,0-1.22.63L23,39.86a1.5,1.5,0,0,0,.09,1.85ZM60,41.72H72.89L52.76,65.08ZM50,67.2,42.07,41.72H57.93Zm0-35.82,7.12,8.34H42.88Zm-9.26,7.77-6.29-7.81h13ZM52.6,31.35h13l-6.29,7.81ZM47.24,65.08,27.11,41.72H40ZM73.19,39.72H61.37l6.29-7.81ZM32.34,31.91l6.29,7.81H26.81Z"/><path d="M89,39.22H83.69a1.5,1.5,0,0,0,0,3H89a1.5,1.5,0,0,0,0-3Z"/><path d="M50.13,21.86a1.5,1.5,0,0,0,1.5-1.5V16.05a1.5,1.5,0,0,0-3,0v4.31A1.5,1.5,0,0,0,50.13,21.86Z"/><path d="M50.13,78.14a1.5,1.5,0,0,0-1.5,1.5v4.31a1.5,1.5,0,0,0,3,0V79.64A1.5,1.5,0,0,0,50.13,78.14Z"/><path d="M16.31,39.22H11a1.5,1.5,0,0,0,0,3h5.31a1.5,1.5,0,1,0,0-3Z"/><path d="M25,23a1.5,1.5,0,0,0,1.06-2.56l-2.75-2.75a1.5,1.5,0,0,0-2.12,2.12L24,22.52A1.5,1.5,0,0,0,25,23Z"/><path d="M26.16,56.43l-2.75,2.75a1.5,1.5,0,1,0,2.12,2.12l2.75-2.75a1.5,1.5,0,0,0-2.12-2.12Z"/><path d="M37.06,69.71l-2.75,2.75a1.5,1.5,0,1,0,2.12,2.12l2.75-2.75a1.5,1.5,0,0,0-2.12-2.12Z"/><path d="M75.94,18.64,73.19,21.4a1.5,1.5,0,1,0,2.12,2.12l2.75-2.75a1.5,1.5,0,0,0-2.12-2.12Z"/><path d="M74.1,56.43A1.5,1.5,0,0,0,72,58.55l2.75,2.75a1.5,1.5,0,1,0,2.12-2.12Z"/><path d="M63.2,69.71a1.5,1.5,0,0,0-2.12,2.12l2.75,2.75A1.5,1.5,0,1,0,66,72.47Z"/></svg>