<?xml version="1.0" standalone="no"?>
<!DOCTYPE svg PUBLIC "-//W3C//DTD SVG 20010904//EN"
 "http://www.w3.org/TR/2001/REC-SVG-20010904/DTD/svg10.dtd">
<svg version="1.0" xmlns="http://www.w3.org/2000/svg"
 width="160.000000pt" height="160.000000pt" viewBox="0 0 160.000000 160.000000"
 preserveAspectRatio="xMidYMid meet">
<metadata>
Created by potrace 1.11, written by Peter Selinger 2001-2013
</metadata>
<g transform="translate(0.000000,160.000000) scale(0.100000,-0.100000)"
fill="#000000" stroke="none">
<path d="M960 1489 c-147 -58 -272 -141 -340 -226 -19 -23 -35 -41 -36 -40 -1
1 -4 16 -7 32 -11 60 -40 126 -62 141 -12 8 -38 17 -56 19 -76 9 -118 18 -199
42 -94 27 -152 31 -205 13 -28 -9 -35 -17 -35 -37 0 -33 27 -78 57 -94 l23
-13 -29 -30 c-50 -53 -56 -74 -31 -101 12 -13 35 -29 51 -35 34 -14 34 -16 13
-60 -14 -27 -14 -34 -3 -41 15 -10 33 -12 66 -10 20 2 21 -1 13 -36 -14 -58 9
-76 62 -49 26 14 26 14 33 -30 3 -24 9 -44 13 -44 19 0 75 44 100 79 22 30 32
37 40 29 9 -9 17 -7 34 8 l22 19 -21 -30 c-11 -16 -32 -55 -46 -86 -17 -38
-43 -71 -79 -101 -56 -48 -200 -134 -274 -165 -24 -10 -46 -23 -48 -29 -7 -17
10 -81 28 -109 18 -27 24 -31 140 -96 60 -33 114 -77 220 -180 l141 -137 36
27 c123 90 284 244 338 324 17 26 35 47 39 47 4 0 18 18 32 40 26 43 28 44 48
32 9 -6 8 -13 -6 -28 -22 -23 -48 -98 -48 -134 1 -21 6 -25 38 -28 34 -3 36
-5 36 -39 0 -46 10 -55 50 -44 18 5 32 9 33 8 0 -1 2 -13 5 -27 10 -55 25 -62
76 -36 25 13 27 13 33 -13 9 -37 33 -71 50 -71 8 0 33 18 57 41 23 22 44 35
46 29 6 -18 53 -70 73 -81 31 -16 54 -2 80 49 36 70 34 167 -7 375 -24 124
-43 183 -63 201 -22 20 -96 43 -126 40 -158 -18 -212 -20 -221 -11 -3 3 12 35
33 71 28 48 48 70 78 85 48 24 93 41 120 47 11 2 33 6 48 10 16 3 40 7 54 9
29 3 42 19 44 55 5 89 5 108 -3 135 -7 27 -86 109 -161 168 -15 12 -40 32 -55
45 -15 12 -55 37 -90 54 -84 41 -173 47 -252 17z"/>
</g>
</svg>
